<?xml version="1.0" encoding="UTF-8"?>
<mxfile host="app.diagrams.net" modified="2025-01-01T00:00:00.000Z" agent="Claude AI"
  version="21.5.2" type="device">
  <diagram id="pWHN0msd4Ud1ZK5cD-Hr" name="Purchase Order Management">
    <mxGraphModel dx="1" dy="1" grid="1" gridSize="10" guides="1" tooltips="1" connect="1"
      arrows="1" fold="1" page="1" pageScale="1" pageWidth="850" pageHeight="1100" math="0"
      shadow="0">
      <root>
        <mxCell id="0" />
        <mxCell id="1" parent="0" />

        <!-- Title -->
        <mxCell id="title" value="Purchase Order Management Event Storming"
          style="text;html=1;strokeColor=none;fillColor=none;align=center;verticalAlign=middle;whiteSpace=wrap;rounded=0;fontSize=20;fontStyle=1;fontColor=#000000;"
          vertex="1" parent="1">
          <mxGeometry x="200" y="20" width="450" height="30" as="geometry" />
        </mxCell>

        <!-- Vertical Boundary for Finance Events -->
        <mxCell id="finance_boundary" value="Finance Boundary"
          style="swimlane;startSize=30;horizontal=1;strokeColor=#5C6BC0;strokeWidth=2;fillColor=#E8EAF6;fontColor=#5C6BC0;swimlaneLine=0;glass=0;shadow=1;fontSize=14;fontStyle=1;"
          vertex="1" parent="1">
          <mxGeometry x="550" y="60" width="280" height="800" as="geometry" />
        </mxCell>

        <!-- Actors -->
        <mxCell id="A.Requester" value="Requester"
          style="shape=umlActor;verticalLabelPosition=bottom;verticalAlign=top;html=1;outlineConnect=0;fillColor=#4CAF50;strokeColor=#2E7D32;strokeWidth=2;"
          vertex="1" parent="1">
          <mxGeometry x="60" y="120" width="30" height="60" as="geometry" />
        </mxCell>

        <mxCell id="A.Approver" value="Approver"
          style="shape=umlActor;verticalLabelPosition=bottom;verticalAlign=top;html=1;outlineConnect=0;fillColor=#2196F3;strokeColor=#1565C0;strokeWidth=2;"
          vertex="1" parent="1">
          <mxGeometry x="60" y="280" width="30" height="60" as="geometry" />
        </mxCell>

        <mxCell id="A.FinanceTeam" value="Finance Team"
          style="shape=umlActor;verticalLabelPosition=bottom;verticalAlign=top;html=1;outlineConnect=0;fillColor=#9C27B0;strokeColor=#6A1B9A;strokeWidth=2;"
          vertex="1" parent="1">
          <mxGeometry x="60" y="520" width="30" height="60" as="geometry" />
        </mxCell>

        <!-- Commands -->
        <mxCell id="C.CreatePO" value="Create PO"
          style="rounded=0;whiteSpace=wrap;html=1;fillColor=#FFCDD2;strokeColor=#D32F2F;strokeWidth=2;fontSize=12;"
          vertex="1" parent="1">
          <mxGeometry x="200" y="120" width="120" height="60" as="geometry" />
        </mxCell>

        <mxCell id="C.SubmitForApproval" value="Submit PO for Approval"
          style="rounded=0;whiteSpace=wrap;html=1;fillColor=#FFCDD2;strokeColor=#D32F2F;strokeWidth=2;fontSize=12;"
          vertex="1" parent="1">
          <mxGeometry x="380" y="120" width="120" height="60" as="geometry" />
        </mxCell>

        <mxCell id="C.ApprovePO" value="Approve PO"
          style="rounded=0;whiteSpace=wrap;html=1;fillColor=#BBDEFB;strokeColor=#1976D2;strokeWidth=2;fontSize=12;"
          vertex="1" parent="1">
          <mxGeometry x="200" y="280" width="120" height="60" as="geometry" />
        </mxCell>

        <mxCell id="C.RejectPO" value="Reject PO"
          style="rounded=0;whiteSpace=wrap;html=1;fillColor=#BBDEFB;strokeColor=#1976D2;strokeWidth=2;fontSize=12;"
          vertex="1" parent="1">
          <mxGeometry x="380" y="280" width="120" height="60" as="geometry" />
        </mxCell>

        <mxCell id="C.ResubmitPO" value="Resubmit PO"
          style="rounded=0;whiteSpace=wrap;html=1;fillColor=#FFCDD2;strokeColor=#D32F2F;strokeWidth=2;fontSize=12;"
          vertex="1" parent="1">
          <mxGeometry x="200" y="360" width="120" height="60" as="geometry" />
        </mxCell>

        <mxCell id="C.CancelPO" value="Cancel PO"
          style="rounded=0;whiteSpace=wrap;html=1;fillColor=#FFCDD2;strokeColor=#D32F2F;strokeWidth=2;fontSize=12;"
          vertex="1" parent="1">
          <mxGeometry x="380" y="360" width="120" height="60" as="geometry" />
        </mxCell>

        <mxCell id="C.RecordPayment" value="Record Payment"
          style="rounded=0;whiteSpace=wrap;html=1;fillColor=#E1BEE7;strokeColor=#7B1FA2;strokeWidth=2;fontSize=12;"
          vertex="1" parent="finance_boundary">
          <mxGeometry x="80" y="100" width="120" height="60" as="geometry" />
        </mxCell>

        <!-- Events -->
        <mxCell id="E.POCreated" value="PO Created"
          style="ellipse;whiteSpace=wrap;html=1;fillColor=#FFEB3B;strokeColor=#F57F17;strokeWidth=2;fontSize=12;"
          vertex="1" parent="1">
          <mxGeometry x="200" y="220" width="120" height="60" as="geometry" />
        </mxCell>

        <mxCell id="E.POSubmittedForApproval" value="PO Submitted for Approval"
          style="ellipse;whiteSpace=wrap;html=1;fillColor=#FFEB3B;strokeColor=#F57F17;strokeWidth=2;fontSize=12;"
          vertex="1" parent="1">
          <mxGeometry x="380" y="220" width="120" height="60" as="geometry" />
        </mxCell>

        <mxCell id="E.POApproved" value="PO Approved"
          style="ellipse;whiteSpace=wrap;html=1;fillColor=#E3F2FD;strokeColor=#5C6BC0;strokeWidth=2;fontSize=12;"
          vertex="1" parent="finance_boundary">
          <mxGeometry x="80" y="200" width="120" height="60" as="geometry" />
        </mxCell>

        <mxCell id="E.PORejected" value="PO Rejected"
          style="ellipse;whiteSpace=wrap;html=1;fillColor=#FFEB3B;strokeColor=#F57F17;strokeWidth=2;fontSize=12;"
          vertex="1" parent="1">
          <mxGeometry x="380" y="450" width="120" height="60" as="geometry" />
        </mxCell>

        <mxCell id="E.POCancelled" value="PO Cancelled"
          style="ellipse;whiteSpace=wrap;html=1;fillColor=#FFEB3B;strokeColor=#F57F17;strokeWidth=2;fontSize=12;"
          vertex="1" parent="1">
          <mxGeometry x="200" y="450" width="120" height="60" as="geometry" />
        </mxCell>

        <mxCell id="E.PaymentRecorded" value="Payment Recorded"
          style="ellipse;whiteSpace=wrap;html=1;fillColor=#E3F2FD;strokeColor=#5C6BC0;strokeWidth=2;fontSize=12;"
          vertex="1" parent="finance_boundary">
          <mxGeometry x="80" y="280" width="120" height="60" as="geometry" />
        </mxCell>

        <mxCell id="E.AuditLogCreated" value="Audit Log Created"
          style="ellipse;whiteSpace=wrap;html=1;fillColor=#E8F5E9;strokeColor=#388E3C;strokeWidth=2;fontSize=12;"
          vertex="1" parent="1">
          <mxGeometry x="290" y="580" width="120" height="60" as="geometry" />
        </mxCell>

        <!-- Flow Connections -->
        <!-- PO Creation and Submission Flow -->
        <mxCell id="flow1"
          style="edgeStyle=orthogonalEdgeStyle;rounded=0;orthogonalLoop=1;jettySize=auto;html=1;strokeColor=#4CAF50;strokeWidth=2;"
          edge="1" parent="1" source="A.Requester" target="C.CreatePO">
          <mxGeometry relative="1" as="geometry" />
        </mxCell>

        <mxCell id="flow2"
          style="edgeStyle=orthogonalEdgeStyle;rounded=0;orthogonalLoop=1;jettySize=auto;html=1;strokeColor=#4CAF50;strokeWidth=2;"
          edge="1" parent="1" source="C.CreatePO" target="E.POCreated">
          <mxGeometry relative="1" as="geometry" />
        </mxCell>

        <mxCell id="flow3"
          style="edgeStyle=orthogonalEdgeStyle;rounded=0;orthogonalLoop=1;jettySize=auto;html=1;strokeColor=#4CAF50;strokeWidth=2;"
          edge="1" parent="1" source="E.POCreated" target="C.SubmitForApproval">
          <mxGeometry relative="1" as="geometry" />
        </mxCell>

        <mxCell id="flow4"
          style="edgeStyle=orthogonalEdgeStyle;rounded=0;orthogonalLoop=1;jettySize=auto;html=1;strokeColor=#4CAF50;strokeWidth=2;"
          edge="1" parent="1" source="C.SubmitForApproval" target="E.POSubmittedForApproval">
          <mxGeometry relative="1" as="geometry" />
        </mxCell>

        <!-- PO Approval Flow -->
        <mxCell id="flow5"
          style="edgeStyle=orthogonalEdgeStyle;rounded=0;orthogonalLoop=1;jettySize=auto;html=1;strokeColor=#2196F3;strokeWidth=2;"
          edge="1" parent="1" source="A.Approver" target="C.ApprovePO">
          <mxGeometry relative="1" as="geometry" />
        </mxCell>

        <mxCell id="flow6"
          style="edgeStyle=orthogonalEdgeStyle;rounded=0;orthogonalLoop=1;jettySize=auto;html=1;strokeColor=#2196F3;strokeWidth=2;"
          edge="1" parent="1" source="C.ApprovePO" target="E.POApproved">
          <mxGeometry relative="1" as="geometry" />
        </mxCell>

        <mxCell id="flow7"
          style="edgeStyle=orthogonalEdgeStyle;rounded=0;orthogonalLoop=1;jettySize=auto;html=1;strokeColor=#2196F3;strokeWidth=2;"
          edge="1" parent="1" source="A.Approver" target="C.RejectPO">
          <mxGeometry relative="1" as="geometry" />
        </mxCell>

        <mxCell id="flow8"
          style="edgeStyle=orthogonalEdgeStyle;rounded=0;orthogonalLoop=1;jettySize=auto;html=1;strokeColor=#2196F3;strokeWidth=2;"
          edge="1" parent="1" source="C.RejectPO" target="E.PORejected">
          <mxGeometry relative="1" as="geometry" />
        </mxCell>

        <!-- PO Resubmission and Cancellation Flow -->
        <mxCell id="flow9"
          style="edgeStyle=orthogonalEdgeStyle;rounded=0;orthogonalLoop=1;jettySize=auto;html=1;strokeColor=#F44336;strokeWidth=2;"
          edge="1" parent="1" source="A.Requester" target="C.ResubmitPO">
          <mxGeometry relative="1" as="geometry" />
        </mxCell>

        <mxCell id="flow10"
          style="edgeStyle=orthogonalEdgeStyle;rounded=0;orthogonalLoop=1;jettySize=auto;html=1;strokeColor=#F44336;strokeWidth=2;strokeDasharray=3 3;"
          edge="1" parent="1" source="C.ResubmitPO" target="C.SubmitForApproval">
          <mxGeometry relative="1" as="geometry" />
        </mxCell>

        <mxCell id="flow11"
          style="edgeStyle=orthogonalEdgeStyle;rounded=0;orthogonalLoop=1;jettySize=auto;html=1;strokeColor=#F44336;strokeWidth=2;"
          edge="1" parent="1" source="A.Requester" target="C.CancelPO">
          <mxGeometry relative="1" as="geometry" />
        </mxCell>

        <mxCell id="flow12"
          style="edgeStyle=orthogonalEdgeStyle;rounded=0;orthogonalLoop=1;jettySize=auto;html=1;strokeColor=#F44336;strokeWidth=2;"
          edge="1" parent="1" source="A.Approver" target="C.CancelPO">
          <mxGeometry relative="1" as="geometry" />
        </mxCell>

        <mxCell id="flow13"
          style="edgeStyle=orthogonalEdgeStyle;rounded=0;orthogonalLoop=1;jettySize=auto;html=1;strokeColor=#F44336;strokeWidth=2;"
          edge="1" parent="1" source="C.CancelPO" target="E.POCancelled">
          <mxGeometry relative="1" as="geometry" />
        </mxCell>

        <!-- Finance Flow -->
        <mxCell id="flow14"
          style="edgeStyle=orthogonalEdgeStyle;rounded=0;orthogonalLoop=1;jettySize=auto;html=1;strokeColor=#9C27B0;strokeWidth=2;"
          edge="1" parent="1" source="A.FinanceTeam" target="C.RecordPayment">
          <mxGeometry relative="1" as="geometry" />
        </mxCell>

        <mxCell id="flow15"
          style="edgeStyle=orthogonalEdgeStyle;rounded=0;orthogonalLoop=1;jettySize=auto;html=1;strokeColor=#9C27B0;strokeWidth=2;"
          edge="1" parent="1" source="C.RecordPayment" target="E.PaymentRecorded">
          <mxGeometry relative="1" as="geometry" />
        </mxCell>

        <!-- Audit Flow -->
        <mxCell id="flow16"
          style="edgeStyle=orthogonalEdgeStyle;rounded=0;orthogonalLoop=1;jettySize=auto;html=1;strokeColor=#388E3C;strokeWidth=2;strokeDasharray=3 3;"
          edge="1" parent="1" source="E.POCreated" target="E.AuditLogCreated">
          <mxGeometry relative="1" as="geometry" />
        </mxCell>

        <mxCell id="flow17"
          style="edgeStyle=orthogonalEdgeStyle;rounded=0;orthogonalLoop=1;jettySize=auto;html=1;strokeColor=#388E3C;strokeWidth=2;strokeDasharray=3 3;"
          edge="1" parent="1" source="E.POSubmittedForApproval" target="E.AuditLogCreated">
          <mxGeometry relative="1" as="geometry" />
        </mxCell>

        <mxCell id="flow18"
          style="edgeStyle=orthogonalEdgeStyle;rounded=0;orthogonalLoop=1;jettySize=auto;html=1;strokeColor=#388E3C;strokeWidth=2;strokeDasharray=3 3;"
          edge="1" parent="1" source="E.POApproved" target="E.AuditLogCreated">
          <mxGeometry relative="1" as="geometry" />
        </mxCell>

        <mxCell id="flow19"
          style="edgeStyle=orthogonalEdgeStyle;rounded=0;orthogonalLoop=1;jettySize=auto;html=1;strokeColor=#388E3C;strokeWidth=2;strokeDasharray=3 3;"
          edge="1" parent="1" source="E.PORejected" target="E.AuditLogCreated">
          <mxGeometry relative="1" as="geometry" />
        </mxCell>

        <mxCell id="flow20"
          style="edgeStyle=orthogonalEdgeStyle;rounded=0;orthogonalLoop=1;jettySize=auto;html=1;strokeColor=#388E3C;strokeWidth=2;strokeDasharray=3 3;"
          edge="1" parent="1" source="E.POCancelled" target="E.AuditLogCreated">
          <mxGeometry relative="1" as="geometry" />
        </mxCell>

        <mxCell id="flow21"
          style="edgeStyle=orthogonalEdgeStyle;rounded=0;orthogonalLoop=1;jettySize=auto;html=1;strokeColor=#388E3C;strokeWidth=2;strokeDasharray=3 3;"
          edge="1" parent="1" source="E.PaymentRecorded" target="E.AuditLogCreated">
          <mxGeometry relative="1" as="geometry" />
        </mxCell>

        <!-- Legend -->
        <mxCell id="legend" value="Legend"
          style="swimlane;startSize=30;horizontal=1;strokeColor=#CCCCCC;strokeWidth=1;fillColor=#FAFAFA;fontColor=#666666;swimlaneLine=0;glass=0;shadow=1;fontSize=14;fontStyle=1;"
          vertex="1" parent="1">
          <mxGeometry x="20" y="680" width="530" height="140" as="geometry" />
        </mxCell>

        <mxCell id="legend_actor" value="Actor"
          style="shape=umlActor;verticalLabelPosition=bottom;verticalAlign=top;html=1;outlineConnect=0;fillColor=#CCCCCC;strokeColor=#666666;"
          vertex="1" parent="legend">
          <mxGeometry x="30" y="50" width="20" height="40" as="geometry" />
        </mxCell>

        <mxCell id="legend_command" value="Command"
          style="rounded=0;whiteSpace=wrap;html=1;fillColor=#FFCDD2;strokeColor=#D32F2F;" vertex="1"
          parent="legend">
          <mxGeometry x="100" y="50" width="80" height="40" as="geometry" />
        </mxCell>

        <mxCell id="legend_event" value="Event"
          style="ellipse;whiteSpace=wrap;html=1;fillColor=#FFEB3B;strokeColor=#F57F17;" vertex="1"
          parent="legend">
          <mxGeometry x="200" y="50" width="80" height="40" as="geometry" />
        </mxCell>

        <mxCell id="legend_normal_flow" value="Normal Flow"
          style="endArrow=classic;html=1;strokeColor=#4CAF50;strokeWidth=2;" edge="1"
          parent="legend">
          <mxGeometry relative="1" as="geometry">
            <mxPoint x="300" y="70" as="sourcePoint" />
            <mxPoint x="350" y="70" as="targetPoint" />
          </mxGeometry>
        </mxCell>

        <mxCell id="legend_special_flow" value="Special Flow"
          style="endArrow=classic;html=1;strokeColor=#388E3C;strokeWidth=2;strokeDasharray=3 3;"
          edge="1" parent="legend">
          <mxGeometry relative="1" as="geometry">
            <mxPoint x="380" y="70" as="sourcePoint" />
            <mxPoint x="430" y="70" as="targetPoint" />
          </mxGeometry>
        </mxCell>
      </root>
    </mxGraphModel>
  </diagram>
</mxfile>